<svg width="7" height="15" viewBox="0 0 7 15" fill="none" xmlns="http://www.w3.org/2000/svg">
<g id="Icon">
<path id="Vector" d="M5.6705 7.51974C5.6705 7.66047 5.61773 7.78361 5.51218 7.88916L2.51069 10.8841C2.41834 10.9764 2.304 11.0226 2.16766 11.0226C2.03133 11.0226 1.91479 10.9753 1.81804 10.8808C1.72129 10.7862 1.67291 10.6708 1.67291 10.5344C1.67291 10.3981 1.72349 10.2794 1.82464 10.1782L4.4897 7.51974L1.82464 4.86128C1.72349 4.76013 1.67291 4.64139 1.67291 4.50506C1.67291 4.36873 1.72129 4.25328 1.81804 4.15873C1.91479 4.06418 2.03133 4.0169 2.16766 4.0169C2.304 4.0169 2.41834 4.06308 2.51069 4.15543L5.51218 7.15033C5.61773 7.25588 5.6705 7.37901 5.6705 7.51974Z" fill="#0066CC"/>
</g>
</svg>
