<svg width="11" height="15" viewBox="0 0 11 15" fill="none" xmlns="http://www.w3.org/2000/svg">
<g id="Icon">
<path id="Vector" d="M9.32887 9.2908C9.32887 9.45564 9.27424 9.59263 9.16498 9.70177C9.05572 9.81092 8.92528 9.86549 8.77366 9.86549C8.62204 9.86549 8.49383 9.80981 8.38903 9.69843C8.28423 9.58706 8.23183 9.45564 8.23183 9.30417V7.81398L8.32548 5.60877L7.52946 6.51758L3.06774 10.9748C2.94734 11.0862 2.81578 11.1418 2.67308 11.1418C2.52145 11.1418 2.38878 11.0839 2.27507 10.9681C2.16135 10.8523 2.10449 10.7209 2.10449 10.5738C2.10449 10.4268 2.16247 10.2954 2.27841 10.1796L6.74013 5.72237L7.64318 4.94052L5.41566 5.02071H3.94403C3.79241 5.02071 3.66197 4.96836 3.55271 4.86367C3.44345 4.75898 3.38883 4.63313 3.38883 4.48611C3.38883 4.33464 3.44234 4.20433 3.54937 4.09519C3.65639 3.98604 3.79241 3.93147 3.95741 3.93147H8.73352C8.91636 3.93147 9.0613 3.98604 9.16832 4.09519C9.27535 4.20433 9.32887 4.34578 9.32887 4.51952V9.2908Z" fill="#1D1D1F"/>
</g>
</svg>
